<?xml version="1.0" encoding="UTF-8" standalone="no"?>
<!-- Created with Inkscape (http://www.inkscape.org/) -->

<svg
   width="651.26685"
   height="262.21045"
   viewBox="0 0 172.31435 69.376517"
   version="1.1"
   id="svg5"
   inkscape:version="1.2.1 (9c6d41e410, 2022-07-14)"
   sodipodi:docname="distribution.svg"
   xml:space="preserve"
   xmlns:inkscape="http://www.inkscape.org/namespaces/inkscape"
   xmlns:sodipodi="http://sodipodi.sourceforge.net/DTD/sodipodi-0.dtd"
   xmlns:xlink="http://www.w3.org/1999/xlink"
   xmlns="http://www.w3.org/2000/svg"
   xmlns:svg="http://www.w3.org/2000/svg"><sodipodi:namedview
     id="namedview7"
     pagecolor="#ffffff"
     bordercolor="#000000"
     borderopacity="0.25"
     inkscape:showpageshadow="2"
     inkscape:pageopacity="0.0"
     inkscape:pagecheckerboard="0"
     inkscape:deskcolor="#d1d1d1"
     inkscape:document-units="mm"
     showgrid="false"
     inkscape:zoom="0.914906"
     inkscape:cx="250.84544"
     inkscape:cy="132.80053"
     inkscape:window-width="2560"
     inkscape:window-height="1351"
     inkscape:window-x="-9"
     inkscape:window-y="-9"
     inkscape:window-maximized="1"
     inkscape:current-layer="layer1" /><defs
     id="defs2"><linearGradient
       inkscape:collect="always"
       id="linearGradient1855"><stop
         style="stop-color:#008572;stop-opacity:1;"
         offset="0"
         id="stop1851" /><stop
         style="stop-color:#22f633;stop-opacity:1;"
         offset="1"
         id="stop1853" /></linearGradient><linearGradient
       inkscape:collect="always"
       id="linearGradient1847"><stop
         style="stop-color:#a454ff;stop-opacity:1;"
         offset="0"
         id="stop1843" /><stop
         style="stop-color:#f68c22;stop-opacity:1;"
         offset="1"
         id="stop1845" /></linearGradient><linearGradient
       inkscape:collect="always"
       id="linearGradient1773"><stop
         style="stop-color:#54ffea;stop-opacity:1;"
         offset="0"
         id="stop1769" /><stop
         style="stop-color:#22f633;stop-opacity:1;"
         offset="1"
         id="stop1771" /></linearGradient><linearGradient
       inkscape:collect="always"
       xlink:href="#linearGradient1855"
       id="linearGradient1775"
       x1="132.5"
       y1="170.72748"
       x2="447.5"
       y2="170.72748"
       gradientUnits="userSpaceOnUse" /><linearGradient
       inkscape:collect="always"
       xlink:href="#linearGradient1847"
       id="linearGradient1841"
       gradientUnits="userSpaceOnUse"
       x1="256.93268"
       y1="54.796421"
       x2="298.33539"
       y2="172.27322" /><linearGradient
       inkscape:collect="always"
       xlink:href="#linearGradient1847"
       id="linearGradient1849"
       gradientUnits="userSpaceOnUse"
       x1="132.5"
       y1="170.72748"
       x2="447.5"
       y2="170.72748"
       gradientTransform="translate(37.870812,48.691044)" /><linearGradient
       inkscape:collect="always"
       xlink:href="#linearGradient1773"
       id="linearGradient1857"
       gradientUnits="userSpaceOnUse"
       x1="132.5"
       y1="170.72748"
       x2="447.5"
       y2="170.72748"
       gradientTransform="translate(190.89981,-25.504832)" /><linearGradient
       inkscape:collect="always"
       xlink:href="#linearGradient1855"
       id="linearGradient1859"
       gradientUnits="userSpaceOnUse"
       x1="132.5"
       y1="170.72748"
       x2="447.5"
       y2="170.72748" /><linearGradient
       inkscape:collect="always"
       xlink:href="#linearGradient1847"
       id="linearGradient1971"
       x1="240.23521"
       y1="76.257217"
       x2="298.06165"
       y2="76.257217"
       gradientUnits="userSpaceOnUse" /><linearGradient
       inkscape:collect="always"
       xlink:href="#linearGradient1847"
       id="linearGradient2175"
       x1="293.4653"
       y1="81.315086"
       x2="298.83487"
       y2="81.315086"
       gradientUnits="userSpaceOnUse"
       gradientTransform="translate(-14.860862,0.50759057)" /><linearGradient
       inkscape:collect="always"
       xlink:href="#linearGradient1847"
       id="linearGradient2316"
       gradientUnits="userSpaceOnUse"
       gradientTransform="matrix(0.6191692,0,0,0.6191692,97.922212,28.207558)"
       x1="293.4653"
       y1="81.315086"
       x2="298.83487"
       y2="81.315086" /><linearGradient
       inkscape:collect="always"
       xlink:href="#linearGradient1847"
       id="linearGradient2371"
       gradientUnits="userSpaceOnUse"
       gradientTransform="translate(-12.239646,1.5055427)"
       x1="293.4653"
       y1="81.315086"
       x2="298.83487"
       y2="81.315086" /><linearGradient
       inkscape:collect="always"
       xlink:href="#linearGradient1847"
       id="linearGradient2373"
       gradientUnits="userSpaceOnUse"
       gradientTransform="matrix(0.6191692,0,0,0.6191692,100.54343,29.20551)"
       x1="293.4653"
       y1="81.315086"
       x2="298.83487"
       y2="81.315086" /><linearGradient
       inkscape:collect="always"
       xlink:href="#linearGradient1847"
       id="linearGradient2408"
       gradientUnits="userSpaceOnUse"
       gradientTransform="translate(-10.793686,-0.08501236)"
       x1="293.4653"
       y1="81.315086"
       x2="298.83487"
       y2="81.315086" /><linearGradient
       inkscape:collect="always"
       xlink:href="#linearGradient1847"
       id="linearGradient2410"
       gradientUnits="userSpaceOnUse"
       gradientTransform="matrix(0.6191692,0,0,0.6191692,101.98939,27.614955)"
       x1="293.4653"
       y1="81.315086"
       x2="298.83487"
       y2="81.315086" /><linearGradient
       inkscape:collect="always"
       xlink:href="#linearGradient1847"
       id="linearGradient2447"
       gradientUnits="userSpaceOnUse"
       gradientTransform="matrix(0.6191692,0,0,0.6191692,-420.77931,19.131144)"
       x1="293.4653"
       y1="81.315086"
       x2="298.83487"
       y2="81.315086" /><linearGradient
       inkscape:collect="always"
       xlink:href="#linearGradient1855"
       id="linearGradient3196"
       x1="291.58591"
       y1="122.36089"
       x2="314.45312"
       y2="122.36089"
       gradientUnits="userSpaceOnUse"
       gradientTransform="matrix(0.78260219,0,0,0.78260219,50.036873,19.712495)" /><linearGradient
       inkscape:collect="always"
       xlink:href="#linearGradient1773"
       id="linearGradient3277"
       gradientUnits="userSpaceOnUse"
       x1="240.23521"
       y1="76.257217"
       x2="298.06165"
       y2="76.257217"
       gradientTransform="matrix(1,0,0,-1,17.262949,205.15432)" /><linearGradient
       inkscape:collect="always"
       xlink:href="#linearGradient1773"
       id="linearGradient3279"
       gradientUnits="userSpaceOnUse"
       gradientTransform="matrix(0.6191692,0,0,0.6191692,-437.96996,-185.87858)"
       x1="293.4653"
       y1="81.315086"
       x2="298.83487"
       y2="81.315086" /><linearGradient
       inkscape:collect="always"
       xlink:href="#linearGradient1855"
       id="linearGradient341"
       gradientUnits="userSpaceOnUse"
       x1="132.5"
       y1="170.72748"
       x2="447.5"
       y2="170.72748" /><linearGradient
       inkscape:collect="always"
       xlink:href="#linearGradient1855"
       id="linearGradient343"
       gradientUnits="userSpaceOnUse"
       x1="132.5"
       y1="170.72748"
       x2="447.5"
       y2="170.72748" /><linearGradient
       inkscape:collect="always"
       xlink:href="#linearGradient1855"
       id="linearGradient345"
       gradientUnits="userSpaceOnUse"
       x1="132.5"
       y1="170.72748"
       x2="447.5"
       y2="170.72748" /><linearGradient
       inkscape:collect="always"
       xlink:href="#linearGradient1855"
       id="linearGradient347"
       gradientUnits="userSpaceOnUse"
       x1="132.5"
       y1="170.72748"
       x2="447.5"
       y2="170.72748" /><linearGradient
       inkscape:collect="always"
       xlink:href="#linearGradient1855"
       id="linearGradient349"
       gradientUnits="userSpaceOnUse"
       x1="132.5"
       y1="170.72748"
       x2="447.5"
       y2="170.72748" /><linearGradient
       inkscape:collect="always"
       xlink:href="#linearGradient1855"
       id="linearGradient351"
       gradientUnits="userSpaceOnUse"
       x1="132.5"
       y1="170.72748"
       x2="447.5"
       y2="170.72748" /><linearGradient
       inkscape:collect="always"
       xlink:href="#linearGradient1855"
       id="linearGradient353"
       gradientUnits="userSpaceOnUse"
       x1="132.5"
       y1="170.72748"
       x2="447.5"
       y2="170.72748" /><linearGradient
       inkscape:collect="always"
       xlink:href="#linearGradient1855"
       id="linearGradient355"
       gradientUnits="userSpaceOnUse"
       x1="132.5"
       y1="170.72748"
       x2="447.5"
       y2="170.72748" /></defs><g
     inkscape:label="Layer 1"
     inkscape:groupmode="layer"
     id="layer1"
     transform="translate(-196.75448,-67.816609)"><circle
       style="fill:url(#linearGradient2408);fill-opacity:1;fill-rule:evenodd;stroke:none;stroke-width:1.37269;stroke-linecap:square;stroke-dasharray:none;paint-order:markers stroke fill"
       id="path4803-3"
       cx="285.35638"
       cy="81.230072"
       r="2.6847816"
       inkscape:export-filename="./distribution.png"
       inkscape:export-xdpi="117.924"
       inkscape:export-ydpi="117.924" /><circle
       style="fill:url(#linearGradient2410);fill-opacity:1;fill-rule:evenodd;stroke:none;stroke-width:0.849927;stroke-linecap:square;stroke-dasharray:none;paint-order:markers stroke fill"
       id="path4803-1-14"
       cx="285.35638"
       cy="77.962753"
       r="1.6623341" /><g
       class="highcharts-series highcharts-series-0"
       transform="matrix(0.26458333,0,0,0.26458333,161.5649,58.359028)"
       id="g37"
       style="font-size:12px;font-family:'lucida grande', 'lucida sans unicode', arial, helvetica, sans-serif;fill:url(#linearGradient1775);fill-opacity:1"><path
         fill="#379b19"
         d="m 447,173 c 0,61.31231 -70.29129,111.01576 -157,111.01576 -86.70871,0 -157,-49.70345 -157,-111.01576 v 7.95495 C 133,122.07823 197.10751,73.826707 280.20972,70.155244 V 62.200293 C 197.10751,65.871756 133,114.12328 133,173 v 7.95495 c 0,61.31232 70.29129,111.01577 157,111.01577 86.70871,0 157,-49.70345 157,-111.01577 z"
         visibility="visible"
         id="path25-9"
         style="font-size:12px;font-family:'lucida grande', 'lucida sans unicode', arial, helvetica, sans-serif;fill:#1a1a1a;fill-opacity:1" /><path
         fill="#379b19"
         d="m 280.20972,56.200293 v 7.954951 L 290,174.95495 V 167 Z"
         visibility="visible"
         id="path13"
         style="fill:url(#linearGradient341);fill-opacity:1" /><path
         fill="#0279d4"
         d="m 280.21128,56.200223 v 7.954952 L 290,174.95495 V 167 Z"
         visibility="visible"
         id="path15"
         style="fill:url(#linearGradient343);fill-opacity:1" /><path
         fill="#0279d4"
         d="m 289.93736,55.984244 v 7.954951 L 290,174.95495 V 167 Z"
         visibility="visible"
         id="path17"
         style="fill:url(#linearGradient345);fill-opacity:1" /><path
         fill="#379b19"
         d="m 289.96802,55.984238 v 7.954951 L 290,174.95495 V 167 Z"
         visibility="visible"
         id="path19"
         style="fill:url(#linearGradient347);fill-opacity:1" /><path
         fill="#0279d4"
         d="m 280.21128,56.200223 c 3.41522,-0.15086 6.3042,-0.215013 9.72608,-0.215979 v 7.954951 c -3.42188,9.66e-4 -6.31086,0.06512 -9.72608,0.21598 z"
         visibility="visible"
         id="path21"
         style="fill:url(#linearGradient349);fill-opacity:1" /><path
         fill="#0279d4"
         d="m 290,167 c 0,0 0,0 0,0 v 7.95495 c 0,0 0,0 0,0 z"
         visibility="visible"
         id="path23"
         style="fill:url(#linearGradient351);fill-opacity:1" /><path
         fill="#379b19"
         d="m 447,167 c 0,61.31231 -70.29129,111.01576 -157,111.01576 -86.70871,0 -157,-49.70345 -157,-111.01576 v 7.95495 C 133,116.07823 197.10751,67.826707 280.20972,64.155244 V 56.200293 C 197.10751,59.871756 133,108.12328 133,167 v 7.95495 c 0,61.31232 70.29129,111.01577 157,111.01577 86.70871,0 157,-49.70345 157,-111.01577 z"
         visibility="visible"
         id="path25"
         style="fill:url(#linearGradient353);fill-opacity:1" /><path
         fill="#379b19"
         d="m 290,167 c 0,0 0,0 0,0 0,0 0,0 0,0 0,0 0,0 0,0 0,0 0,0 0,0 v 7.95495 c 0,0 0,0 0,0 0,0 0,0 0,0 0,0 0,0 0,0 0,0 0,0 0,0 z"
         visibility="visible"
         id="path27"
         style="fill:url(#linearGradient355);fill-opacity:1" /><g
         stroke="#ffffff"
         stroke-width="1"
         stroke-linejoin="round"
         id="g31"
         style="fill:url(#linearGradient1859);fill-opacity:1;stroke:#000000"
         transform="translate(-189.35406,26.277706)"><path
           fill="#50b432"
           d="m 480.86783,30.479406 c 86.70871,-0.01249 157.01432,49.680842 157.03198,110.993154 0.0177,61.31231 -70.25932,111.02588 -156.96802,111.03837 -86.70871,0.0125 -157.01432,-49.68084 -157.03198,-110.99315 -0.017,-58.884672 64.09629,-107.15036 147.20972,-110.822319 l 9.79028,110.799709 c 0,0 0,0 0,0 0,0 0,0 0,0 0,0 0,0 0,0 0,0 0,0 0,0 z"
           visibility="visible"
           id="path29"
           style="fill:url(#linearGradient1857);fill-opacity:1;stroke:#000000" /></g><g
         stroke="#ffffff"
         stroke-width="1"
         stroke-linejoin="round"
         id="g35"
         style="fill:url(#linearGradient1841);fill-opacity:1;stroke:#000000"
         transform="translate(-36.278182,-53.140758)"><path
           fill="#1b92ed"
           d="m 318.08209,104.89127 c 3.41522,-0.15086 6.3042,-0.21502 9.72608,-0.21598 l 0.0626,111.01576 c 0,0 0,0 0,0 z"
           visibility="visible"
           id="path33"
           style="fill:url(#linearGradient1849);fill-opacity:1;stroke:#000000" /></g></g><path
       style="fill:none;stroke:url(#linearGradient1971);stroke-width:0.9;stroke-linecap:butt;stroke-linejoin:miter;stroke-dasharray:none;stroke-opacity:1"
       d="m 281.59263,79.964451 -15.31989,-10.423896 -27.8763,0.07056"
       id="path4600"
       sodipodi:nodetypes="ccc" /><circle
       style="fill:url(#linearGradient2175);fill-opacity:1;fill-rule:evenodd;stroke:none;stroke-width:1.37269;stroke-linecap:square;stroke-dasharray:none;paint-order:markers stroke fill"
       id="path4803"
       cx="281.28922"
       cy="81.822678"
       r="2.6847816" /><circle
       style="fill:url(#linearGradient2316);fill-opacity:1;fill-rule:evenodd;stroke:none;stroke-width:0.849927;stroke-linecap:square;stroke-dasharray:none;paint-order:markers stroke fill"
       id="path4803-1"
       cx="281.28922"
       cy="78.555359"
       r="1.6623341" /><circle
       style="fill:url(#linearGradient2371);fill-opacity:1;fill-rule:evenodd;stroke:none;stroke-width:1.37269;stroke-linecap:square;stroke-dasharray:none;paint-order:markers stroke fill"
       id="path4803-8"
       cx="283.91043"
       cy="82.820625"
       r="2.6847816" /><circle
       style="fill:url(#linearGradient2373);fill-opacity:1;fill-rule:evenodd;stroke:none;stroke-width:0.849927;stroke-linecap:square;stroke-dasharray:none;paint-order:markers stroke fill"
       id="path4803-1-1"
       cx="283.91043"
       cy="79.553307"
       r="1.6623341" /><circle
       style="fill:url(#linearGradient2447);fill-opacity:1;fill-rule:evenodd;stroke:none;stroke-width:0.849927;stroke-linecap:square;stroke-dasharray:none;paint-order:markers stroke fill"
       id="path4803-1-1-6"
       cx="-237.41231"
       cy="69.478943"
       r="1.6623341"
       transform="scale(-1,1)" /><path
       style="fill:none;stroke:url(#linearGradient3277);stroke-width:0.9;stroke-linecap:butt;stroke-linejoin:miter;stroke-dasharray:none;stroke-opacity:1"
       d="m 287.86629,125.55136 -4.3306,10.06241 -27.8763,-0.0706"
       id="path4600-3"
       sodipodi:nodetypes="ccc" /><circle
       style="fill:url(#linearGradient3279);fill-opacity:1;fill-rule:evenodd;stroke:none;stroke-width:0.849927;stroke-linecap:square;stroke-dasharray:none;paint-order:markers stroke fill"
       id="path4803-1-1-6-8"
       cx="-254.60297"
       cy="-135.53079"
       r="1.6623341"
       transform="scale(-1)" /><text
       xml:space="preserve"
       style="font-stretch:condensed;font-size:7.53929px;line-height:1.4;font-family:Impact;-inkscape-font-specification:'Impact Condensed';text-decoration-color:#000000;white-space:pre;fill:#f9f9f9;stroke:none;stroke-width:0.686932;stroke-linecap:round;stroke-linejoin:round;stroke-dasharray:none;paint-order:markers stroke fill;stop-color:#000000"
       x="292.38654"
       y="82.99897"
       id="text2231"><tspan
         sodipodi:role="line"
         id="tspan2229"
         style="font-style:normal;font-variant:normal;font-weight:800;font-stretch:normal;font-family:Poppins;-inkscape-font-specification:'Poppins Ultra-Bold';fill:#f9f9f9;stroke-width:0.686933"
         x="292.38654"
         y="82.99897">Team   1%</tspan></text><text
       xml:space="preserve"
       style="font-stretch:condensed;font-size:9.87777px;line-height:1.4;font-family:Impact;-inkscape-font-specification:'Impact Condensed';text-decoration-color:#000000;white-space:pre;fill:#f9f9f9;stroke:none;stroke-width:0.899999;stroke-linecap:round;stroke-linejoin:round;stroke-dasharray:none;paint-order:markers stroke fill;stop-color:#000000"
       x="298.12665"
       y="120.63702"
       id="text2231-8"><tspan
         sodipodi:role="line"
         id="tspan2229-5"
         style="font-style:normal;font-variant:normal;font-weight:800;font-stretch:normal;font-family:Poppins;-inkscape-font-specification:'Poppins Ultra-Bold';fill:#f9f9f9;stroke-width:0.9"
         x="298.12665"
         y="120.63702">Uniswap   99%</tspan></text><path
       style="fill:url(#linearGradient3196);fill-opacity:1;stroke-width:0.0119121"
       d="m 290.88858,125.77202 c -0.45255,-0.038 -0.86498,-0.31983 -1.17631,-0.80358 -0.0694,-0.10781 -0.22315,-0.41561 -0.35092,-0.70245 -0.21362,-0.47959 -0.36874,-0.76975 -0.51029,-0.95456 -0.14182,-0.18516 -0.41455,-0.41122 -0.62217,-0.51571 -0.11175,-0.0563 -0.27286,-0.10665 -0.40405,-0.12643 -0.55963,-0.0844 -1.02841,0.18071 -1.14106,0.64517 -0.0288,0.11891 -0.0209,0.32519 0.0167,0.433 0.0761,0.2185 0.22938,0.37621 0.47931,0.4933 0.24834,0.11634 0.46131,0.1219 0.66823,0.0175 0.0936,-0.0473 0.21715,-0.1706 0.2681,-0.26766 0.0922,-0.17574 0.0999,-0.41937 0.0182,-0.58153 -0.0736,-0.14603 -0.28619,-0.27531 -0.49219,-0.29926 -0.19868,-0.0231 -0.4253,0.10163 -0.48085,0.26466 -0.0226,0.0664 -0.0246,0.17874 -0.005,0.24629 0.0182,0.061 0.078,0.12128 0.17024,0.17162 0.0509,0.0278 0.061,0.0368 0.0355,0.0315 -0.1113,-0.0233 -0.20955,-0.0944 -0.25955,-0.18789 -0.0221,-0.0414 -0.0263,-0.0682 -0.0263,-0.16837 0,-0.10756 0.003,-0.12606 0.0349,-0.1906 0.0943,-0.19292 0.29725,-0.30797 0.5428,-0.30769 0.14143,1.4e-4 0.23508,0.0236 0.38037,0.0949 0.0883,0.0434 0.13042,0.0734 0.19655,0.13995 0.15034,0.15136 0.19901,0.28719 0.19901,0.5553 0,0.27768 -0.0679,0.45436 -0.24675,0.64199 -0.25749,0.27013 -0.63688,0.36743 -1.02949,0.26403 -0.33364,-0.0879 -0.45602,-0.17172 -0.90335,-0.61896 -0.42049,-0.42041 -0.58716,-0.56376 -0.81546,-0.7014 -0.28567,-0.17222 -0.60838,-0.27074 -1.20379,-0.3675 -0.155,-0.0252 -0.28047,-0.0494 -0.2788,-0.0537 0.005,-0.0144 0.38206,-0.32274 0.51523,-0.42184 0.78053,-0.58088 1.76663,-0.99559 2.53609,-1.06656 0.29856,-0.0275 0.82782,-7.9e-4 1.1085,0.0556 0.15707,0.0317 0.44077,0.13087 0.60709,0.21229 0.50959,0.24944 0.8363,0.58777 1.04976,1.08714 0.10927,0.2556 0.16303,0.48284 0.27974,1.18226 0.0905,0.54247 0.12739,0.69232 0.21825,0.88675 0.19022,0.40706 0.44025,0.58492 0.88305,0.62816 0.2796,0.0273 0.555,-0.0192 0.95696,-0.16141 0.0676,-0.024 0.12904,-0.0415 0.13649,-0.039 0.0392,0.0131 -0.33881,0.2533 -0.54221,0.34455 -0.26493,0.11886 -0.52808,0.16425 -0.81313,0.14026 z m 2.75242,-1.51532 c 0.005,-0.0147 0.0349,-0.0858 0.0675,-0.15783 0.18782,-0.41523 0.2441,-0.66697 0.23165,-1.03635 -0.0177,-0.52563 -0.18921,-0.95959 -0.69608,-1.76117 -0.0615,-0.0973 -0.22752,-0.35189 -0.36892,-0.56582 -0.47944,-0.72536 -0.62236,-0.958 -0.7386,-1.20227 -0.27885,-0.58591 -0.3625,-1.13363 -0.25147,-1.64653 0.0361,-0.16679 0.0653,-0.23824 0.0972,-0.23824 0.0143,0 0.0667,0.0261 0.11646,0.058 0.1694,0.10854 0.45104,0.2681 1.10666,0.62695 0.99576,0.54503 1.50493,0.95075 1.84623,1.47115 0.22812,0.3478 0.38873,0.82989 0.41976,1.25991 0.0221,0.30588 -0.0152,0.84371 -0.0749,1.0808 -0.22881,0.90893 -0.79823,1.64564 -1.5895,2.05653 -0.0865,0.0449 -0.16115,0.0817 -0.16584,0.0817 -0.005,0 -0.005,-0.0121 -2.3e-4,-0.0268 z m -12.05819,-1.084 c -0.006,-0.008 -0.0174,-0.0493 -0.025,-0.0912 -0.0246,-0.13821 -0.13678,-0.34707 -0.50298,-0.93617 -0.20252,-0.32579 -0.30929,-0.55433 -0.40579,-0.86855 -0.0996,-0.32424 -0.13838,-0.6189 -0.12482,-0.94768 0.017,-0.41129 0.0563,-0.58173 0.20278,-0.87792 0.12096,-0.2446 0.17842,-0.32718 0.57994,-0.8335 0.429,-0.54095 0.64269,-0.83776 0.82411,-1.14462 0.255,-0.43136 0.40278,-0.84053 0.47223,-1.30758 0.0699,-0.46981 0.0855,-0.56451 0.11433,-0.69364 0.0604,-0.2701 0.15289,-0.50183 0.27053,-0.67764 0.0301,-0.0451 0.10676,-0.14364 0.17019,-0.21898 0.13757,-0.1634 0.18387,-0.25078 0.18389,-0.34701 10e-6,-0.12315 -0.0639,-0.2421 -1.83325,-3.41492 -0.42409,-0.76047 -0.53772,-0.96937 -0.51635,-0.94928 0.0199,0.0186 0.31735,0.47462 1.15807,1.7749 0.83139,1.28584 1.37119,2.10474 1.51689,2.30118 0.1335,0.18001 0.27138,0.27849 0.45603,0.32572 0.11651,0.0298 0.20304,0.0297 0.35063,-3.8e-4 0.31182,-0.0635 0.55096,-0.19195 0.6402,-0.34377 0.027,-0.046 0.0325,-0.0691 0.0323,-0.13859 -1.8e-4,-0.11941 -0.0299,-0.16729 -0.35936,-0.57807 -0.76809,-0.95778 -3.58492,-4.40968 -5.47237,-6.70615 -0.98618,-1.19989 -1.17663,-1.43602 -1.04577,-1.2966 0.9318,0.99273 6.86109,7.51087 7.44804,8.18772 l 0.093,0.10721 -0.006,0.17875 c -0.0123,0.34411 -0.0758,0.52703 -0.2572,0.74048 -0.12243,0.14411 -0.32958,0.29832 -0.517,0.38491 -0.2008,0.0928 -0.3978,0.1458 -0.75239,0.20249 -0.33395,0.0534 -0.44569,0.0944 -0.56392,0.2071 -0.15731,0.14988 -0.20676,0.30573 -0.25188,0.79376 -0.0687,0.74324 -0.12931,0.96561 -0.4529,1.66173 -0.3394,0.73013 -0.39741,0.95521 -0.33901,1.31529 0.0711,0.43815 0.30153,0.72805 0.92872,1.16819 0.10482,0.0736 0.23935,0.17323 0.29894,0.22148 0.27761,0.22479 0.43405,0.453 0.4708,0.68676 0.0171,0.10895 0.006,0.43588 -0.0188,0.55116 -0.0727,0.3383 -0.47878,0.73791 -1.06065,1.04371 -0.40284,0.21172 -0.98924,0.40818 -1.52237,0.51006 -0.15018,0.0287 -0.16832,0.0297 -0.18351,0.01 z m 0.0528,-2.25447 c 0.13472,-0.04 0.24778,-0.19538 0.26153,-0.35943 0.0225,-0.26773 -0.20105,-0.49637 -0.45257,-0.46301 -0.11445,0.0152 -0.18683,0.0715 -0.18683,0.14525 0,0.0589 0.01,0.0738 0.0793,0.11809 0.0969,0.062 0.10027,0.0828 0.0346,0.21428 -0.0441,0.0882 -0.0543,0.12056 -0.0543,0.17224 0,0.0595 0.003,0.0668 0.0513,0.11281 0.0786,0.0754 0.15611,0.0927 0.26697,0.0598 z m 5.04211,-0.11406 c 0.0229,-0.0196 0.0953,-0.0669 0.16081,-0.10499 0.57965,-0.33679 0.88716,-0.43363 1.97145,-0.6209 0.80641,-0.13927 1.03023,-0.19528 1.30155,-0.32571 0.58455,-0.28101 0.95277,-0.76268 1.03933,-1.35958 0.0449,-0.30977 -0.002,-0.735 -0.11979,-1.10132 -0.0222,-0.0685 -0.0389,-0.12596 -0.0372,-0.12768 0.006,-0.006 0.15734,0.17721 0.20656,0.25027 0.11715,0.17386 0.25121,0.49626 0.28361,0.68207 0.0215,0.12359 0.0248,0.57361 0.005,0.7148 -0.0272,0.19572 -0.16106,0.50819 -0.29795,0.69564 -0.42474,0.58162 -1.04209,0.88299 -1.97633,0.96478 -0.0754,0.006 -0.35141,0.0255 -0.61348,0.0419 -0.87621,0.0551 -1.2974,0.121 -1.78226,0.27874 -0.0823,0.0268 -0.15714,0.0484 -0.16639,0.0482 -0.009,-2.8e-4 0.002,-0.0165 0.0249,-0.0363 z m 8.99545,-0.87618 c -0.006,-0.0253 -0.0153,-0.0889 -0.0197,-0.14129 -0.0324,-0.38431 -0.20492,-0.74031 -0.50587,-1.04385 -0.30798,-0.31063 -0.7696,-0.58815 -1.54893,-0.93119 -0.25599,-0.11269 -0.3687,-0.15996 -0.99466,-0.4172 -0.77291,-0.31763 -1.23765,-0.54969 -1.64982,-0.82385 -0.77847,-0.51779 -1.1207,-1.04548 -1.18021,-1.81977 -0.0132,-0.17238 -0.005,-0.50919 0.0128,-0.50919 0.005,0 0.0677,0.0449 0.13899,0.0997 0.16738,0.12878 0.27262,0.19641 0.41718,0.26809 0.3714,0.18417 0.78047,0.28037 1.95734,0.46035 0.52907,0.0809 0.80728,0.13252 1.09243,0.20267 0.81365,0.20014 1.42206,0.51781 1.89191,0.9878 0.42171,0.42185 0.67582,0.90022 0.7981,1.50244 0.0791,0.3898 0.0531,1.07363 -0.0559,1.47005 -0.0585,0.21291 -0.25432,0.65891 -0.3137,0.71469 l -0.0282,0.0264 z m -9.75022,-3.41149 c -0.13338,-0.0211 -0.26103,-0.10485 -0.31302,-0.20538 -0.0486,-0.094 -0.0679,-0.38681 -0.0347,-0.52686 0.0371,-0.15629 0.13095,-0.31302 0.26762,-0.44671 0.0992,-0.0971 0.18363,-0.15257 0.29362,-0.19304 0.06,-0.0221 0.0948,-0.0259 0.23148,-0.0255 0.26907,7.8e-4 0.43409,0.0519 0.60013,0.18529 0.25836,0.20764 0.38848,0.53085 0.29661,0.73675 -0.0949,0.21269 -0.40016,0.38857 -0.79549,0.45833 -0.1279,0.0225 -0.44826,0.0326 -0.54631,0.0171 z m 0.70324,-0.71436 c 0.2703,-0.0934 0.33787,-0.31779 0.1407,-0.46714 -0.0909,-0.0689 -0.19108,-0.0986 -0.3274,-0.0971 -0.12539,0.002 -0.2046,0.0246 -0.30048,0.0881 -0.0797,0.0528 -0.11994,0.11762 -0.12614,0.20337 -0.005,0.0611 -7.8e-4,0.0771 0.0258,0.11732 0.047,0.0711 0.15672,0.1409 0.2726,0.17352 0.0819,0.023 0.21884,0.0153 0.31499,-0.018 z m 8.28808,-0.49149 c -0.23512,-0.34961 -0.52917,-0.57897 -0.89595,-0.69882 -0.27963,-0.0914 -0.60408,-0.13439 -1.35479,-0.17961 -0.97717,-0.0589 -1.42058,-0.12526 -1.9238,-0.28816 -0.57008,-0.18454 -0.91007,-0.38786 -1.32057,-0.78968 -0.31049,-0.30393 -0.51962,-0.55006 -1.0477,-1.23308 -0.46805,-0.60536 -0.63759,-0.80908 -0.89475,-1.07511 -0.57893,-0.59891 -1.16839,-0.95669 -1.868,-1.13383 -0.10261,-0.026 -0.50816,-0.10194 -0.54448,-0.10198 -0.006,-10e-6 -0.005,-0.007 0.003,-0.0149 0.011,-0.011 0.0778,-0.0146 0.25552,-0.0139 0.73701,0.003 1.37436,0.21153 1.99763,0.6532 0.33986,0.24083 0.74784,0.62242 1.09984,1.02865 0.0851,0.0982 0.0856,0.0986 0.13305,0.0916 0.0262,-0.004 0.13035,-0.02 0.23141,-0.0358 0.4018,-0.0632 0.50277,-0.0703 0.99554,-0.0706 0.48899,-3.5e-4 0.58949,0.006 0.947,0.0608 0.47374,0.0725 0.95691,0.2105 1.36859,0.39084 0.27547,0.12068 0.71649,0.36663 0.8274,0.46143 0.0496,0.0424 0.0552,0.0531 0.0776,0.14983 0.0593,0.25562 0.0862,0.61933 0.0621,0.84049 -0.0201,0.18425 -0.0611,0.33184 -0.13713,0.49375 -0.0529,0.11261 -0.0664,0.15333 -0.0664,0.20092 0,0.23359 0.23993,0.39436 0.44342,0.29712 0.11601,-0.0554 0.24034,-0.20676 0.3433,-0.41782 0.0847,-0.17363 0.13917,-0.33605 0.19086,-0.56914 0.0215,-0.0968 0.043,-0.17186 0.0477,-0.16676 0.14148,0.15119 0.39012,0.47258 0.51401,0.66442 0.25795,0.39942 0.46527,0.84655 0.55642,1.20005 0.0341,0.13247 0.0794,0.39893 0.0695,0.40889 -0.002,0.002 -0.0527,-0.0661 -0.11101,-0.1528 z m -1.6491,-1.385 c 0,-0.0129 0.0186,-0.0725 0.0412,-0.13237 0.0549,-0.14572 0.066,-0.24875 0.066,-0.61805 0,-0.96582 -0.10622,-1.19232 -0.73509,-1.56748 -0.13943,-0.0832 -0.53792,-0.28644 -0.77775,-0.39671 -0.0688,-0.0317 -0.11928,-0.0597 -0.1122,-0.0624 0.0376,-0.0141 0.59613,0.15372 0.95834,0.28785 0.31799,0.11776 0.36877,0.13216 0.40251,0.11409 0.0332,-0.0177 0.0449,-0.0862 0.0677,-0.39289 0.0305,-0.41158 0.0811,-0.65159 0.18685,-0.8864 0.0466,-0.1036 0.0929,-0.18994 0.093,-0.17359 0,0.004 -0.0158,0.059 -0.0352,0.12203 -0.0979,0.31814 -0.10681,0.63492 -0.0304,1.08531 0.0295,0.17415 0.0706,0.30817 0.12233,0.39927 0.0533,0.0938 0.17566,0.24203 0.35093,0.42511 0.47979,0.50111 0.63058,0.66925 0.79932,0.89117 l 0.10869,0.14294 -0.14258,-0.13016 c -0.26786,-0.24455 -0.7013,-0.59259 -0.84793,-0.68089 -0.0794,-0.0478 -0.12042,-0.0512 -0.15647,-0.0127 -0.042,0.0448 -0.0495,0.0928 -0.0614,0.39878 -0.0157,0.40181 -0.0438,0.6041 -0.11352,0.81892 -0.0309,0.0952 -0.13073,0.31535 -0.16546,0.36495 -0.0175,0.025 -0.0187,0.0252 -0.0186,0.003 z m -6.35917,-0.26914 c -0.2086,-0.0347 -0.49497,-0.17949 -0.74551,-0.37697 -0.10855,-0.0856 -0.32963,-0.30669 -0.41366,-0.41374 -0.44985,-0.57311 -0.74966,-1.44634 -0.7484,-2.17983 2.7e-4,-0.16601 0.0166,-0.40812 0.0283,-0.41983 0.011,-0.011 0.21181,0.0376 0.36308,0.0878 0.57341,0.19052 0.8535,0.45974 1.0418,1.00134 0.0592,0.17054 0.10724,0.34743 0.1689,0.62305 0.0958,0.42827 0.16092,0.66732 0.21583,0.79277 0.0573,0.13085 0.2261,0.43349 0.33918,0.60805 0.0897,0.13841 0.10501,0.1867 0.073,0.22988 -0.0127,0.0171 -0.0412,0.0374 -0.0635,0.0452 -0.047,0.0164 -0.16722,0.0175 -0.25899,0.002 z"
       id="path3188" /></g></svg>
